<svg width="14" height="16" viewBox="0 0 14 16" fill="none" xmlns="http://www.w3.org/2000/svg">
<path d="M13.5385 11.728C13.2681 12.5471 12.8813 13.3186 12.3911 14.016C11.9358 14.6613 11.5635 15.1076 11.2775 15.3547C10.8342 15.7636 10.3569 15.9716 9.84754 15.9822C9.48031 15.9822 9.03862 15.8773 8.52415 15.6676C8.07272 15.4721 7.59077 15.366 7.10262 15.3547C6.64908 15.3547 6.16169 15.4578 5.64046 15.6676C5.11754 15.8773 4.69615 15.9876 4.37462 15.9982C3.88723 16.0196 3.39815 15.8062 2.91246 15.3547C2.60108 15.0862 2.21354 14.6222 1.74815 13.968C1.22576 13.2242 0.810627 12.4035 0.516154 11.5324C0.184602 10.6055 0.0099195 9.62482 0 8.63467C0 7.56267 0.233539 6.63644 0.698923 5.86133C1.06383 5.24611 1.57057 4.73753 2.17224 4.38266C2.77392 4.02778 3.45109 3.83808 4.14108 3.83111C4.53031 3.83111 5.03969 3.952 5.67262 4.18667C6.30385 4.42311 6.70831 4.54222 6.886 4.54222C7.01969 4.54222 7.46985 4.40178 8.23308 4.12267C8.954 3.86489 9.56492 3.75822 10.0642 3.79911C11.4163 3.90933 12.4317 4.43911 13.1069 5.39556C11.8986 6.12444 11.2995 7.14667 11.3114 8.45689C11.3232 9.47733 11.6938 10.3289 12.4249 11.0027C12.7566 11.3156 13.1272 11.5573 13.5385 11.7298V11.728ZM10.1369 0C10.1471 0.106667 10.1538 0.213333 10.1538 0.32C10.1538 1.12 9.85939 1.86667 9.27385 2.56C8.56815 3.38133 7.71354 3.85778 6.78616 3.78133C6.77435 3.68108 6.7687 3.58013 6.76923 3.47911C6.76923 2.70933 7.10431 1.888 7.7 1.216C7.99785 0.874667 8.37692 0.593778 8.83554 0.366222C9.24299 0.157681 9.6848 0.0333525 10.1369 0V0Z" fill="white"/>
</svg>
