<svg width="16" height="16" viewBox="0 0 16 16" fill="none" xmlns="http://www.w3.org/2000/svg">
<path opacity="0.5" fill-rule="evenodd" clip-rule="evenodd" d="M11.4004 2C11.9453 2 12.4086 1.99936 12.7871 2.03027C13.1761 2.06209 13.5552 2.13208 13.917 2.31641C14.4624 2.59446 14.9066 3.03849 15.1846 3.58399C15.3687 3.9457 15.438 4.32497 15.4697 4.71387C15.5006 5.09239 15.5 5.55573 15.5 6.10059V9.90039C15.5 10.4454 15.5006 10.9086 15.4697 11.2871C15.4379 11.6761 15.3689 12.0552 15.1846 12.417C14.9066 12.9625 14.4625 13.4065 13.917 13.6846C13.5552 13.8689 13.1761 13.9379 12.7871 13.9697C12.4086 14.0006 11.9453 14 11.4004 14H4.60059C4.05579 14 3.59237 14.0006 3.21387 13.9697C2.82498 13.938 2.44568 13.8687 2.08399 13.6846C1.53848 13.4066 1.09446 12.9624 0.816407 12.417C0.632058 12.0552 0.562085 11.6761 0.530274 11.2871C0.49936 10.9086 0.500001 10.4453 0.500001 9.90039V6.10059C0.500001 5.55573 0.499396 5.09239 0.530274 4.71387C0.562063 4.3248 0.632089 3.94584 0.816407 3.58399C1.09444 3.03832 1.53832 2.59444 2.08399 2.31641C2.4458 2.13214 2.82485 2.06206 3.21387 2.03027C3.59237 1.99941 4.05579 2 4.60059 2H11.4004ZM2.30078 7.90039V9.90039C2.30078 10.475 2.30067 10.8523 2.32422 11.1406C2.34689 11.4178 2.3864 11.5337 2.41992 11.5996C2.5254 11.8064 2.69455 11.9747 2.90137 12.0801C2.96737 12.1136 3.08343 12.1532 3.36035 12.1758C3.64861 12.1993 4.02618 12.2002 4.60059 12.2002H11.4004C11.975 12.2002 12.3524 12.1993 12.6406 12.1758C12.9181 12.1531 13.0338 12.1136 13.0996 12.0801C13.3064 11.9746 13.4747 11.8064 13.5801 11.5996C13.6136 11.5337 13.6531 11.4182 13.6758 11.1406C13.6993 10.8523 13.7002 10.4751 13.7002 9.90039V7.90039H2.30078ZM4.60059 3.80078C4.02619 3.80078 3.64861 3.80072 3.36035 3.82422C3.08345 3.84684 2.96737 3.88642 2.90137 3.91992C2.69439 4.02538 2.52538 4.19439 2.41992 4.40137C2.38641 4.46735 2.34686 4.58325 2.32422 4.86035C2.30072 5.14852 2.30078 5.52547 2.30078 6.09961H13.7002C13.7002 5.52548 13.6993 5.14852 13.6758 4.86035C13.6532 4.58336 13.6136 4.46736 13.5801 4.40137C13.4747 4.19457 13.3063 4.0254 13.0996 3.91992C13.0337 3.8864 12.9177 3.8469 12.6406 3.82422C12.3524 3.80068 11.9749 3.80078 11.4004 3.80078H4.60059Z" fill="white" fill-opacity="0.5"/>
</svg>
