<svg width="16" height="16" viewBox="0 0 16 16" fill="none" xmlns="http://www.w3.org/2000/svg">
<path opacity="0.5" d="M9.6582 0.167073C10.118 -0.0214154 10.6443 0.198612 10.833 0.658285C11.0215 1.1181 10.8015 1.64444 10.3418 1.83309C9.92173 2.00532 9.60273 2.21799 9.34668 2.50009H13C14.3255 2.50009 15.4004 3.575 15.4004 4.90048V6.10068C15.4003 6.65158 15.2127 7.15765 14.9004 7.56259V12.0997C14.9004 13.7012 13.6017 15.0001 12 15.0001H4C2.39837 15.0001 1.09961 13.7013 1.09961 12.0997V7.56259C0.787327 7.15765 0.599717 6.65158 0.599609 6.10068V4.90048C0.599609 3.57499 1.67452 2.50009 3 2.50009H6.65332C6.39727 2.21799 6.07827 2.00532 5.6582 1.83309C5.19848 1.64444 4.97847 1.1181 5.16699 0.658285C5.35566 0.198612 5.88201 -0.0214154 6.3418 0.167073C7.01789 0.444305 7.56398 0.8145 8 1.29891C8.43602 0.8145 8.98211 0.444305 9.6582 0.167073ZM2.90039 12.0997C2.90039 12.7072 3.39249 13.2003 4 13.2003H7.15039V8.5001H3C2.96658 8.5001 2.93347 8.49559 2.90039 8.49424V12.0997ZM13 8.5001H8.84961V13.2003H12C12.6073 13.2003 13.0996 12.7073 13.0996 12.0997V8.49424C13.0665 8.49559 13.0334 8.5001 13 8.5001ZM3 4.30087C2.66863 4.30087 2.40039 4.56911 2.40039 4.90048V6.10068C2.40065 6.43183 2.66879 6.70029 3 6.70029H7.15039V4.30087H3ZM8.84961 6.70029H13C13.3312 6.70029 13.5994 6.43183 13.5996 6.10068V4.90048C13.5996 4.56911 13.3314 4.30087 13 4.30087H8.84961V6.70029Z" fill="white" fill-opacity="0.5"/>
</svg>
