<svg width="16" height="16" viewBox="0 0 16 16" fill="none" xmlns="http://www.w3.org/2000/svg">
<path opacity="0.5" d="M12.3008 2C14.0677 2.00043 15.4999 3.43421 15.5 5.20117V8.00098C15.4997 8.49761 15.0972 8.90105 14.6006 8.90137C14.1037 8.90137 13.7005 8.49781 13.7002 8.00098V5.20117C13.7001 4.42833 13.0736 3.80218 12.3008 3.80176H3.7002C2.92715 3.80186 2.30089 4.42813 2.30078 5.20117V10.7012C2.30104 11.4741 2.92725 12.1015 3.7002 12.1016H12.8281L12.3643 11.6377C12.0128 11.2862 12.0128 10.7167 12.3643 10.3652C12.7157 10.0138 13.2852 10.0138 13.6367 10.3652L15.6367 12.3652C15.9877 12.7167 15.988 13.2864 15.6367 13.6377L13.6367 15.6377C13.2854 15.9889 12.7158 15.9886 12.3643 15.6377C12.0128 15.2862 12.0128 14.7167 12.3643 14.3652L12.8281 13.9014H3.7002C1.93314 13.9013 0.500264 12.4682 0.5 10.7012V5.20117C0.500106 3.43402 1.93304 2.0001 3.7002 2H12.3008ZM12 6.18848L11.8926 6.24219C11.7094 6.33523 11.548 6.47185 11.4258 6.64258L11.4268 6.64355C11.2132 6.94721 11.0331 7.276 10.8896 7.62207L10.8887 7.62598L9.44727 10.8994H9.13379L9.08398 10.7783L8.07617 8.31836L6.89746 10.791L6.84375 10.9014H6.53711L4.97168 7.22949C4.8304 6.90499 4.6938 6.67791 4.56445 6.54004L4.56348 6.53906C4.43324 6.39828 4.2888 6.30502 4.13574 6.25684L4 6.21387V5.80371H6.7666V6.20117L6.64551 6.25098C6.57364 6.2808 6.53484 6.31178 6.51562 6.33594C6.4958 6.36105 6.48934 6.3828 6.48926 6.4043C6.48965 6.42655 6.49333 6.44926 6.49902 6.4707C6.50869 6.50549 6.52241 6.53915 6.54004 6.57031L6.5459 6.58203L6.55078 6.59375L7.375 8.60254L7.81445 7.68555L7.47363 6.85254L7.47266 6.85059C7.40279 6.67333 7.3424 6.54425 7.29395 6.46094L7.22656 6.37109C7.2072 6.35021 7.18879 6.33591 7.17383 6.32617C7.12673 6.30029 7.06996 6.27784 7.00195 6.26465L6.8457 6.23438V5.80566H9.56738V6.23535L9.41016 6.26465C9.32087 6.2809 9.27821 6.30934 9.25879 6.33105C9.24289 6.34932 9.22694 6.38123 9.22559 6.44531C9.23905 6.56164 9.26246 6.67713 9.29785 6.78809L9.33887 6.90234L9.95605 8.47168C10.0772 8.21498 10.1796 7.94835 10.2607 7.6748C10.333 7.42155 10.3701 7.17562 10.3701 6.93457C10.3701 6.70545 10.3289 6.55429 10.2686 6.45898C10.2053 6.35932 10.1065 6.28887 9.99512 6.2627L9.8457 6.22754V5.80078H12V6.18848Z" fill="white" fill-opacity="0.5"/>
</svg>
