<svg width="69" height="20" viewBox="0 0 69 20" fill="none" xmlns="http://www.w3.org/2000/svg">
<path fill-rule="evenodd" clip-rule="evenodd" d="M10.0093 0C11.386 5.47743e-07 12.6742 0.260964 13.8785 0.782804C15.0804 1.30697 16.1404 2.02448 17.0581 2.94234C17.9759 3.85788 18.6956 4.92264 19.2174 6.1317C19.7392 7.34075 20 8.636 20 10.0104C20 11.3849 19.7392 12.6732 19.2174 13.8776C18.6933 15.0797 17.9759 16.1445 17.0581 17.067C16.1427 17.9918 15.0828 18.7117 13.8785 19.2265C12.6742 19.7414 11.3837 20 10.0093 20C8.63266 20 7.33976 19.7414 6.13082 19.2265C4.92191 18.7093 3.85964 17.9895 2.94189 17.067C2.02414 16.1445 1.30435 15.082 0.782582 13.8776C0.260829 12.6755 0 11.3872 0 10.0104C6.57112e-06 8.63367 0.260837 7.34075 0.782582 6.1317C1.30668 4.92264 2.02415 3.86021 2.94189 2.94234C3.85731 2.02448 4.92191 1.30464 6.13082 0.782804C7.34209 0.260963 8.63499 0 10.0093 0ZM3.75 7.24987V7.5748C4.02974 7.67429 4.28696 7.83212 4.5237 8.06685C4.75845 8.30335 4.98211 8.64893 5.18311 9.12043L7.69198 14.7452H7.9399L10.2011 10.2304L12.1165 14.7452H12.3304C12.3304 14.7452 14.6459 9.67226 14.6922 9.57076C14.8852 9.12803 15.235 8.49064 15.4375 8.24463C15.6535 7.95813 15.9465 7.72937 16.25 7.58612V7.24987H13.5944V7.5748C13.8872 7.6518 14.0882 7.76461 14.201 7.92236C14.7825 8.82586 13.6818 10.8306 13.2375 11.8324L12.0055 8.84055C11.949 8.73907 11.9153 8.62829 11.8928 8.50431C11.792 8.05058 11.911 7.6233 12.3735 7.5748V7.24987H8.37536V7.5748C8.62127 7.61979 8.82397 7.70807 8.97994 7.7983C9.13794 7.8998 9.29382 8.1346 9.45157 8.51585L9.96604 9.74787L8.82435 11.9902L7.36705 8.47057C7.32955 8.34307 7.2659 8.17752 7.2674 8.05553C7.27267 7.81458 7.36257 7.65254 7.62629 7.5748V7.24987H3.75Z" fill="white"/>
<path d="M36 0L36 20" stroke="white" stroke-opacity="0.26" stroke-width="0.5"/>
<path d="M69 14.6603C68.6606 15.6842 68.1748 16.6485 67.5592 17.5204C66.9876 18.327 66.5201 18.8848 66.161 19.1937C65.6042 19.7048 65.005 19.9648 64.3654 19.9782C63.9043 19.9782 63.3496 19.8471 62.7036 19.5848C62.1368 19.3405 61.5316 19.2079 60.9186 19.1937C60.3491 19.1937 59.7371 19.3226 59.0826 19.5848C58.426 19.8471 57.8969 19.9848 57.4931 19.9982C56.8811 20.0248 56.267 19.7582 55.6571 19.1937C55.2661 18.8582 54.7795 18.2781 54.1951 17.4604C53.5392 16.5306 53.0179 15.5047 52.6481 14.4158C52.2318 13.2572 52.0125 12.0313 52 10.7936C52 9.45353 52.2933 8.29572 52.8776 7.32681C53.3358 6.55778 53.9721 5.92204 54.7276 5.47843C55.4832 5.03483 56.3335 4.7977 57.1999 4.78899C57.6886 4.78899 58.3283 4.9401 59.123 5.23344C59.9156 5.529 60.4235 5.67789 60.6466 5.67789C60.8145 5.67789 61.3797 5.50233 62.3381 5.15344C63.2434 4.83121 64.0105 4.69787 64.6374 4.74899C66.3352 4.88677 67.6102 5.549 68.4581 6.74458C66.9409 7.65571 66.1886 8.93351 66.2035 10.5713C66.2184 11.8469 66.6837 12.9114 67.6018 13.7536C68.0183 14.1447 68.4836 14.447 69 14.6625V14.6603ZM64.7287 0C64.7415 0.133336 64.75 0.266672 64.75 0.400008C64.75 1.40003 64.3802 2.33338 63.645 3.20006C62.7589 4.22675 61.6858 4.82232 60.5213 4.72676C60.5064 4.60144 60.4993 4.47525 60.5 4.34898C60.5 3.38673 60.9208 2.36005 61.6688 1.52003C62.0428 1.09336 62.5187 0.742237 63.0946 0.457787C63.6063 0.197106 64.161 0.0416914 64.7287 0V0Z" fill="white"/>
</svg>
